<?xml version="1.0" encoding="UTF-8" standalone="no"?>
<!-- Created with Inkscape (http://www.inkscape.org/) -->

<svg
   width="136.47966mm"
   height="135.37218mm"
   viewBox="0 0 136.47966 135.37218"
   version="1.1"
   id="svg1"
   xml:space="preserve"
   inkscape:export-filename="logo.svg"
   inkscape:export-xdpi="96"
   inkscape:export-ydpi="96"
   xmlns:inkscape="http://www.inkscape.org/namespaces/inkscape"
   xmlns:sodipodi="http://sodipodi.sourceforge.net/DTD/sodipodi-0.dtd"
   xmlns="http://www.w3.org/2000/svg"
   xmlns:svg="http://www.w3.org/2000/svg"><sodipodi:namedview
     id="namedview1"
     pagecolor="#ffffff"
     bordercolor="#000000"
     borderopacity="0.25"
     inkscape:showpageshadow="2"
     inkscape:pageopacity="0.0"
     inkscape:pagecheckerboard="0"
     inkscape:deskcolor="#d1d1d1"
     inkscape:document-units="mm" /><defs
     id="defs1" /><g
     inkscape:label="Layer 1"
     inkscape:groupmode="layer"
     id="layer1"
     transform="translate(-23.469346,-11.006952)"><path
       style="fill:#ffffff"
       d="m 24.482338,124.41869 v -21.96041 h 11.906249 11.906249 v 21.96041 21.96042 H 36.388587 24.482338 Z m 20.108332,0 v -17.99166 h -8.069791 -8.069792 v 17.99166 17.99167 h 8.069792 8.069791 z m 17.197911,-7.14375 V 88.170782 h 11.90625 11.90625 v 29.104158 29.10417 h -11.90625 -11.90625 z m 19.84375,0 V 92.139532 h -8.06979 -8.06979 v 25.135408 25.13542 h 8.06979 8.06979 z m 17.19792,1.45521 V 91.081199 h 11.906249 11.90625 v 27.648951 27.64896 H 110.7365 98.830251 Z m 20.043599,-0.0661 -0.0676,-23.746343 -8.00365,-0.07003 -8.00364,-0.07003 v 23.816373 23.81638 h 8.0712 8.07121 z M 136.1365,98.621823 V 50.864534 H 148.04275 159.949 V 98.621823 146.37911 H 148.04275 136.1365 Z m 19.84375,0 V 54.833284 h -8.06979 -8.0698 v 43.788539 43.788537 h 8.0698 8.06979 z M 33.121112,88.956736 C 27.738159,88.031877 23.806125,82.519104 24.696576,77.145404 25.8694,70.067636 32.991084,66.270615 39.502287,69.251542 l 1.494565,0.684235 12.432029,-12.43203 12.43203,-12.43203 -0.56556,-1.270779 c -0.98749,-2.218819 -1.19376,-3.250699 -1.07162,-5.360674 0.2231,-3.853875 2.46224,-7.162899 5.97205,-8.825567 1.63099,-0.772629 1.99975,-0.84287 4.4251,-0.84287 2.42534,0 2.7941,0.07024 4.42509,0.84287 3.44428,1.631622 5.7288,4.952054 5.96764,8.673636 0.13195,2.056041 -0.37344,4.368631 -1.2768,5.842408 l -0.49455,0.806833 6.98082,6.977082 6.98081,6.977083 1.67307,-0.772076 c 1.495019,-0.689905 1.954669,-0.772117 4.318909,-0.772457 2.366,-3.4e-4 2.8229,0.08137 4.32001,0.772567 l 1.67417,0.772948 15.73283,-15.732827 15.73282,-15.732827 -0.73825,-1.576578 c -0.66097,-1.411544 -0.73824,-1.86739 -0.73824,-4.354703 0,-2.56661 0.0628,-2.909064 0.82543,-4.497917 3.14468,-6.551921 11.66842,-8.036553 16.78196,-2.923016 5.11166,5.11166 3.61933,13.684065 -2.92302,16.790737 -1.58245,0.751438 -1.94164,0.816653 -4.49792,0.816653 -2.49167,0 -2.9452,-0.07721 -4.39852,-0.748816 l -1.6204,-0.748816 -15.57752,15.663603 c -8.93261,8.981973 -15.56042,15.847473 -15.53743,16.094648 0.022,0.237076 0.36299,1.19695 0.75765,2.133054 0.63716,1.511256 0.70541,1.956567 0.60898,3.973328 -0.0893,1.867743 -0.25617,2.576084 -0.93915,3.986533 -0.45681,0.943368 -1.12118,2.032232 -1.47638,2.419699 -2.81168,3.067093 -7.05444,4.340084 -10.78326,3.235393 -5.651529,-1.674305 -8.848449,-7.458806 -7.171339,-12.975795 0.30295,-0.996599 0.72905,-2.050124 0.94688,-2.341166 0.37561,-0.501853 0.0325,-0.893431 -6.64647,-7.586358 l -7.04251,-7.057192 -1.26765,0.662837 c -2.7446,1.435108 -6.48314,1.432047 -9.25796,-0.0076 l -1.22378,-0.634918 -12.48035,12.482423 -12.480344,12.482423 0.738011,1.576058 c 0.6607,1.410958 0.73801,1.86708 0.73801,4.354183 0,2.455341 -0.08178,2.952585 -0.703899,4.279673 -2.026282,4.322439 -6.777486,6.830144 -11.427117,6.03128 z m 4.136713,-4.114821 c 1.438519,-0.490153 3.040846,-1.950389 3.763077,-3.429378 0.693514,-1.42018 0.693514,-4.113329 0,-5.533509 -1.604124,-3.284931 -5.530557,-4.731375 -8.733356,-3.217249 -2.415149,1.141763 -3.824837,3.347237 -3.824837,5.984004 0,4.597144 4.396908,7.694752 8.795116,6.196132 z M 106.75897,73.146084 c 3.94823,-2.438039 4.08113,-8.115715 0.25486,-10.887452 -3.00149,-2.174267 -7.349699,-1.312035 -9.298469,1.843845 -3.70484,5.999718 3.043889,12.748448 9.043609,9.043607 z M 77.272581,45.077812 c 5.52477,-2.509729 5.01861,-10.624181 -0.76994,-12.343196 -1.65507,-0.491502 -2.11694,-0.488985 -3.83388,0.02089 -5.85955,1.740098 -6.18817,9.948752 -0.4973,12.422049 1.23051,0.534793 3.81555,0.484246 5.10112,-0.09975 z M 151.36816,27.721093 c 3.4887,-1.040828 5.35132,-4.694137 4.32055,-8.474266 -0.37635,-1.380183 -2.704,-3.688367 -4.11441,-4.08 -3.72093,-1.033202 -7.39763,0.852879 -8.43394,4.32646 -0.47503,1.592209 -0.47738,2.616494 -0.009,3.929301 0.75665,2.120907 2.18661,3.550869 4.30752,4.307523 1.31281,0.468356 2.33709,0.466006 3.9293,-0.009 z"
       id="path5" /><path
       style="fill:#ffffff;stroke-width:2.265;stroke-dasharray:none"
       d="M 28.097658,36.875666 43.966612,52.911662"
       id="path2" /><path
       style="fill:#ffffff;stroke-width:2.265;stroke-dasharray:none"
       d="m 23.469347,76.003935 10.356581,6.26406"
       id="path3" /><path
       style="fill:#ffffff;stroke-width:2.265;stroke-dasharray:none"
       d="m 24.221035,77.006187 4.426603,3.674914"
       id="path4" /></g></svg>
